/vscmnt/brussel_pixiu_data/_data_brussel/112/vsc11236/PredSimResults/SUBJ10_Dhondt2024_3seg/SUBJ10_Dhondt2024_3seg_12580722.mot
version=1
nRows=4
nColumns=124
inDegrees=yes
endheader
                time	         pelvis_tilt	         pelvis_list	     pelvis_rotation	           pelvis_tx	           pelvis_ty	           pelvis_tz	       hip_flexion_r	     hip_adduction_r	      hip_rotation_r	        knee_angle_r	       ankle_angle_r	    subtalar_angle_r	         mtp_angle_r	       hip_flexion_l	     hip_adduction_l	      hip_rotation_l	        knee_angle_l	       ankle_angle_l	    subtalar_angle_l	         mtp_angle_l	    lumbar_extension	      lumbar_bending	     lumbar_rotation	          arm_flex_r	           arm_add_r	           arm_rot_r	        elbow_flex_r	          arm_flex_l	           arm_add_l	           arm_rot_l	        elbow_flex_l	glut_med1_r/activation	glut_med2_r/activation	glut_med3_r/activation	glut_min1_r/activation	glut_min2_r/activation	glut_min3_r/activation	semimem_r/activation	semiten_r/activation	bifemlh_r/activation	bifemsh_r/activation	    sar_r/activation	add_long_r/activation	add_brev_r/activation	add_mag1_r/activation	add_mag2_r/activation	add_mag3_r/activation	    tfl_r/activation	   pect_r/activation	   grac_r/activation	glut_max1_r/activation	glut_max2_r/activation	glut_max3_r/activation	iliacus_r/activation	  psoas_r/activation	quad_fem_r/activation	    gem_r/activation	   peri_r/activation	rect_fem_r/activation	vas_med_r/activation	vas_int_r/activation	vas_lat_r/activation	med_gas_r/activation	lat_gas_r/activation	 soleus_r/activation	tib_post_r/activation	flex_dig_r/activation	flex_hal_r/activation	tib_ant_r/activation	per_brev_r/activation	per_long_r/activation	per_tert_r/activation	ext_dig_r/activation	ext_hal_r/activation	glut_med1_l/activation	glut_med2_l/activation	glut_med3_l/activation	glut_min1_l/activation	glut_min2_l/activation	glut_min3_l/activation	semimem_l/activation	semiten_l/activation	bifemlh_l/activation	bifemsh_l/activation	    sar_l/activation	add_long_l/activation	add_brev_l/activation	add_mag1_l/activation	add_mag2_l/activation	add_mag3_l/activation	    tfl_l/activation	   pect_l/activation	   grac_l/activation	glut_max1_l/activation	glut_max2_l/activation	glut_max3_l/activation	iliacus_l/activation	  psoas_l/activation	quad_fem_l/activation	    gem_l/activation	   peri_l/activation	rect_fem_l/activation	vas_med_l/activation	vas_int_l/activation	vas_lat_l/activation	med_gas_l/activation	lat_gas_l/activation	 soleus_l/activation	tib_post_l/activation	flex_dig_l/activation	flex_hal_l/activation	tib_ant_l/activation	per_brev_l/activation	per_long_l/activation	per_tert_l/activation	ext_dig_l/activation	ext_hal_l/activation	 ercspn_r/activation	 ercspn_l/activation	 intobl_r/activation	 intobl_l/activation	 extobl_r/activation	 extobl_l/activation	
          1.46831984	         -2.92100322	          0.43849650	         -1.79181903	          1.77666700	          0.82411557	          0.00111307	        -16.35909636	          1.75329753	          8.94259140	         -6.93041544	          4.55146872	         12.96824746	         13.57574317	         28.49685620	          3.16846391	          3.80713882	        -13.15350913	          9.92486174	          0.28772586	          0.23677655	         -5.58254381	         -0.00885472	          1.04619746	         18.39893123	        -13.62940783	         11.59375158	         42.84444453	        -23.92003011	        -14.72243329	         -0.44053767	         39.09609554	          0.19157621	          0.09315484	          0.05395456	          0.25652279	          0.20925717	          0.13145765	          0.01086812	          0.01000419	          0.01000213	          0.02713230	          0.07518885	          0.01000073	          0.01000049	          0.01000104	          0.01000364	          0.01000181	          0.34401010	          0.01000350	          0.01000833	          0.01573965	          0.01370038	          0.01000471	          0.17329101	          0.32076448	          0.01573590	          0.01573644	          0.04995167	          0.21907282	          0.01000037	          0.01000045	          0.01000035	          0.24139324	          0.27617479	          0.22987046	          0.23005890	          0.29291290	          0.35851463	          0.01488932	          0.05320538	          0.17002358	          0.01163221	          0.01344647	          0.01438136	          0.01352970	          0.01000185	          0.01000577	          0.01087741	          0.01000220	          0.01000296	          0.13169487	          0.01163651	          0.02094510	          0.01000179	          0.01269807	          0.05269123	          0.12752703	          0.09810412	          0.09862397	          0.07033747	          0.01000223	          0.01829921	          0.05528175	          0.01163369	          0.02168559	          0.04552014	          0.01422435	          0.01353905	          0.01623253	          0.01001081	          0.01000107	          0.01000053	          0.07060758	          0.06574962	          0.05987605	          0.01163136	          0.01163076	          0.01163144	          0.01000012	          0.01000060	          0.01000111	          0.29327899	          0.17981272	          0.10521461	          0.12475937	          0.28674886	          0.04191100	          0.01000002	          0.01354202	          0.01000019	          0.02880273	          0.01000041	          0.07968754	
          1.47810864	         -2.91259293	          0.68716971	         -1.93406978	          1.79044858	          0.82370653	          0.00093200	        -16.25651478	          1.50113846	          8.83135252	         -8.72174614	          3.66406049	         13.28783946	         14.53886846	         27.80851297	          3.61182667	          3.86777831	        -12.80949111	          9.27166686	          0.19130123	          0.23984747	         -5.45614629	         -0.43414324	          1.08615226	         18.24765292	        -13.63495944	         11.69283109	         43.83468131	        -24.67679293	        -14.71372906	         -0.54751812	         39.12135962	          0.23371014	          0.08008868	          0.04638674	          0.22054307	          0.17990626	          0.11301905	          0.01000328	          0.01000052	          0.01000048	          0.02332668	          0.06464281	          0.03799752	          0.01000507	          0.01000534	          0.01000793	          0.01000159	          0.29575835	          0.06028719	          0.01193944	          0.01353252	          0.01177946	          0.01000753	          0.14898475	          0.27577310	          0.01352886	          0.01352947	          0.04294532	          0.18834869	          0.01000158	          0.01000217	          0.01000201	          0.20753467	          0.23743769	          0.20641644	          0.21245678	          0.25182932	          0.30823026	          0.01280090	          0.05010035	          0.16922450	          0.01000076	          0.01156045	          0.01236423	          0.01163211	          0.01031627	          0.01000039	          0.01163216	          0.01163173	          0.01000741	          0.11322303	          0.01000452	          0.01800740	          0.01000033	          0.01091745	          0.04530114	          0.11319860	          0.13672136	          0.12474322	          0.06786386	          0.01000095	          0.01823344	          0.04752902	          0.01000259	          0.01864422	          0.04469330	          0.01222951	          0.01164031	          0.11838719	          0.01000181	          0.01000476	          0.01163274	          0.09436325	          0.05652866	          0.07813285	          0.01000001	          0.01000004	          0.01000000	          0.01299678	          0.01128777	          0.01000183	          0.29545329	          0.16999908	          0.11588651	          0.16160260	          0.30687638	          0.05661453	          0.01480211	          0.01164259	          0.02417833	          0.02476278	          0.01000049	          0.06851032	
          1.48789744	         -2.90117251	          0.94635995	         -2.06541349	          1.80439235	          0.82326993	          0.00075881	        -16.05480034	          1.25272099	          8.71136240	        -10.68276209	          2.63250149	         13.57954744	         15.47309235	         27.08041651	          4.01737261	          3.95495855	        -12.98539552	          8.38636615	          0.11467387	          0.24190566	         -5.32163237	         -0.87420534	          1.11931104	         18.02545861	        -13.63256167	         11.76693649	         44.68776611	        -25.22840470	        -14.69829530	         -0.53455622	         38.70853112	          0.20093403	          0.06885521	          0.03988040	          0.18961151	          0.15467217	          0.09716669	          0.01463887	          0.01002151	          0.01000962	          0.02005485	          0.05557593	          0.05471602	          0.03704804	          0.01163203	          0.01163093	          0.01163815	          0.25427451	          0.05183772	          0.01026631	          0.01163490	          0.01012798	          0.01000468	          0.12808773	          0.23709235	          0.01163134	          0.01163198	          0.03692170	          0.16193048	          0.01636800	          0.01167576	          0.01163595	          0.17842520	          0.20413395	          0.17746383	          0.18265712	          0.21650725	          0.26499720	          0.01100542	          0.05303044	          0.16933454	          0.01000017	          0.01000004	          0.01063006	          0.01000062	          0.01000032	          0.02695602	          0.01000083	          0.01000074	          0.01000063	          0.09734205	          0.06925603	          0.04357994	          0.01573676	          0.01111104	          0.03894730	          0.09732206	          0.11754569	          0.10724722	          0.05834546	          0.01000185	          0.01568127	          0.08257084	          0.01725782	          0.02063506	          0.03842478	          0.01051471	          0.01000937	          0.10178215	          0.01352617	          0.01000107	          0.01000126	          0.08112769	          0.04859988	          0.06717380	          0.01818939	          0.01830527	          0.01636403	          0.01465384	          0.01352025	          0.01552461	          0.25401211	          0.17603522	          0.09963514	          0.13893582	          0.26383307	          0.04867366	          0.02577550	          0.01000957	          0.02078704	          0.02128949	          0.01573614	          0.05890086	
          1.49768623	         -2.88760592	          1.22233449	         -2.18313987	          1.81840412	          0.82281915	          0.00058820	        -15.73171949	          1.00618911	          8.57425267	        -12.83661599	          1.45663176	         13.82242566	         16.32026792	         26.33630978	          4.38586588	          4.06227272	        -13.31313033	          7.39004301	          0.05474264	          0.24282675	         -5.18617445	         -1.33344464	          1.14566471	         17.74997833	        -13.62595352	         11.84001612	         45.38916230	        -25.55803188	        -14.68101126	         -0.39613503	         37.86419055	          0.19668566	          0.05919739	          0.03428666	          0.24539440	          0.13297756	          0.08353785	          0.01950909	          0.01000032	          0.01000025	          0.01724194	          0.04778081	          0.04704165	          0.03185183	          0.01000129	          0.01000233	          0.01000659	          0.21860942	          0.04456779	          0.01000061	          0.01000377	          0.01000065	          0.01000048	          0.11012179	          0.20383712	          0.01000012	          0.01000079	          0.03174298	          0.14638350	          0.01407260	          0.01003858	          0.01000420	          0.15339872	          0.17550149	          0.15257219	          0.15703712	          0.18613944	          0.22782801	          0.01000016	          0.07617974	          0.16147948	          0.01000086	          0.01000062	          0.01000121	          0.18584811	          0.20835366	          0.22749798	          0.13371640	          0.02581044	          0.11071527	          0.08368857	          0.05954281	          0.03907960	          0.01353027	          0.01006897	          0.03348460	          0.08367232	          0.10106084	          0.09220840	          0.08114544	          0.01000149	          0.01348471	          0.07099085	          0.15770365	          0.02673271	          0.04181257	          0.01163148	          0.01163139	          0.08750616	          0.01162987	          0.02477753	          0.01000025	          0.12671156	          0.04178344	          0.10413766	          0.01563810	          0.01573774	          0.01406877	          0.01259848	          0.01162400	          0.01334719	          0.38155852	          0.21413003	          0.11004290	          0.46417081	          0.36471656	          0.23704104	          0.04521512	          0.03023283	          0.01787139	          0.01830338	          0.01352896	          0.05063924	
